# Blender 4.2.2 LTS
# www.blender.org
mtllib retopo.mtl
o Plane
v -0.935820 1.596008 -7.124332
v 1.020568 1.738980 -7.217262
v -0.807848 2.890308 -7.224914
v 0.497542 3.184698 -7.241306
v -0.872553 1.112382 -7.142469
v 0.940809 1.182023 -7.199133
v -0.353559 0.695415 -7.116008
v 0.835326 0.710194 -7.163956
v -0.567842 3.694398 -7.240222
v 0.265139 3.683681 -7.252060
v -0.429442 3.909747 -7.266866
v -0.024808 3.881419 -7.266344
v 0.084066 4.012968 -7.347752
v -0.549266 4.056980 -7.335299
v -0.000459 4.435763 -7.611089
v -0.609644 4.280013 -7.469851
v -0.394219 4.487297 -7.606314
v -0.508812 4.417336 -7.562310
v 0.043248 4.491457 -7.697447
v 0.295161 4.350397 -7.873531
v -0.450226 4.485796 -7.702566
v -1.031810 2.957991 -7.472357
v -0.959619 3.508870 -7.536268
v 0.047956 4.492125 -7.901765
v -0.759087 4.059038 -7.521616
v -0.944759 3.787233 -7.722120
v -0.388889 4.493279 -7.819993
v -1.250110 1.661917 -7.464098
v -1.005573 1.102298 -7.194219
v -1.180929 0.805635 -7.333289
v -0.533631 0.531498 -7.148433
v -1.165662 0.288473 -7.557235
v -1.171990 0.436945 -7.400081
v -0.779465 0.019247 -7.406016
v -0.569426 0.140229 -7.263860
v -1.086975 0.181125 -7.502697
v -1.165521 0.299505 -8.293913
v -0.958316 0.023692 -7.700476
v 0.887593 0.318010 -7.261002
v -0.435931 0.017997 -7.316032
v 0.830634 0.035118 -7.451483
v 0.628299 0.023679 -7.338800
v 0.631114 0.019807 -7.365622
v 0.630905 0.019807 -7.363747
v 1.150273 0.789702 -7.334894
v 1.078308 0.343758 -7.454969
v 1.154536 0.558352 -7.407790
v 1.152645 0.446692 -7.645323
v 1.037397 2.659198 -7.445963
v 1.199432 1.772652 -7.331536
v 1.182551 2.326470 -7.434879
v 0.497086 3.185903 -7.241306
v 0.265092 3.684478 -7.252316
v 1.074223 3.080523 -7.800033
v 0.959752 3.418378 -7.823348
v 0.433609 4.180422 -7.807954
v -1.212030 1.705153 -8.465984
v -1.030752 2.997117 -8.403316
v -0.951609 3.785252 -8.049777
v -0.956078 3.498616 -8.360677
v -0.866733 3.853803 -8.127909
v -0.553320 4.360567 -7.867908
v 1.025628 3.278044 -8.256540
v 0.456988 4.123693 -8.233310
v 0.998492 3.134748 -8.351659
v 0.727589 3.731580 -8.423389
v -1.034507 0.114993 -8.419076
v -0.972786 0.023087 -8.348274
v -1.154392 0.552595 -8.462461
v -1.175952 1.141737 -8.599168
v 1.154543 0.440196 -7.807421
v 1.149973 0.438896 -8.262499
v 0.937722 3.350077 -8.359121
v 0.739011 3.665446 -8.467082
v 1.139665 0.608849 -8.457848
v 1.070648 0.404331 -8.515602
v 0.833903 0.061182 -8.290921
v 0.986678 0.241938 -8.512897
v 0.373945 3.848428 -8.484928
v 0.582469 3.696293 -8.535782
v 0.460263 3.704844 -8.543755
v -0.792776 3.322506 -8.544254
v -0.874836 1.899868 -8.713469
v 0.894502 0.482100 -8.615843
v 0.603306 3.092676 -8.585844
v 0.602111 3.324203 -8.561088
v -1.107590 1.160209 -8.650347
v -0.831162 0.487074 -8.656778
v -0.843129 0.240248 -8.587420
v -0.660639 0.353831 -8.672829
v -0.847637 0.008351 -8.421111
v 0.858713 0.341798 -8.610664
vn 0.0269 0.0493 0.9984
vn 0.0397 -0.0006 0.9992
vn 0.0323 0.0841 0.9959
vn 0.0106 0.0199 0.9997
vn 0.0123 0.1031 0.9946
vn 0.2145 0.3795 0.9000
vn 0.0432 0.4743 0.8793
vn -0.2203 0.2580 0.9407
vn 0.0565 0.5329 0.8443
vn 0.0647 0.5010 0.8630
vn 0.1128 0.8081 0.5782
vn -0.4368 0.8668 0.2406
vn -0.6697 0.1962 0.7162
vn -0.6419 0.2283 0.7320
vn -0.7106 0.2123 0.6708
vn -0.8687 0.3063 0.3893
vn -0.7171 0.1247 0.6857
vn -0.7065 0.0322 0.7070
vn -0.4815 -0.4594 0.7464
vn -0.1105 -0.0747 0.9911
vn -0.3560 -0.0815 0.9309
vn -0.5167 -0.8013 0.3017
vn -0.2103 -0.5690 0.7950
vn 0.0418 -0.2357 0.9709
vn 0.0328 -0.2842 0.9582
vn 0.0211 -0.5143 0.8574
vn 0.4164 -0.5952 0.6873
vn 0.6831 -0.3852 0.6205
vn 0.8161 -0.3847 0.4313
vn 0.4929 -0.0923 0.8652
vn 0.5179 -0.0352 0.8547
vn 0.4568 0.1955 0.8678
vn 0.5247 0.2186 0.8227
vn 0.6952 0.3757 0.6128
vn 0.6446 0.4625 0.6087
vn -0.7724 0.4725 -0.4245
vn 0.5857 0.5102 0.6298
vn -0.9882 0.1528 -0.0135
vn -0.9904 0.1382 -0.0003
vn -0.9994 0.0336 0.0025
vn -0.8174 0.5748 -0.0374
vn 0.5648 -0.7881 0.2448
vn -0.7672 0.6414 -0.0074
vn -0.8198 0.5726 -0.0001
vn 0.0033 1.0000 0.0033
vn -0.0037 0.9996 0.0279
vn -0.0716 0.9971 0.0261
vn 0.6398 0.6678 0.3803
vn 0.4961 0.8681 0.0143
vn 0.8253 0.5630 -0.0434
vn 0.9456 0.3231 0.0391
vn 0.8298 0.5571 0.0321
vn 0.6444 0.7435 -0.1787
vn -0.3495 -0.2158 0.9117
vn -0.3317 -0.2089 0.9200
vn -0.4202 -0.2834 0.8620
vn -0.8128 -0.5825 -0.0065
vn -0.7931 -0.6090 0.0067
vn -0.9999 0.0117 -0.0090
vn -0.9993 -0.0330 -0.0161
vn -0.9968 -0.0739 -0.0313
vn 0.7831 0.3586 0.5081
vn 0.9980 0.0374 -0.0502
vn 0.9736 0.0302 -0.2264
vn 1.0000 0.0094 -0.0028
vn 0.9993 -0.0229 -0.0300
vn 0.8245 0.3841 -0.4156
vn 0.8103 0.2097 -0.5471
vn 0.9911 0.0516 -0.1230
vn 0.9348 -0.2421 -0.2599
vn 0.7831 -0.6216 -0.0188
vn 0.8078 -0.5858 -0.0660
vn 0.7577 -0.6526 0.0091
vn 0.1435 0.6438 -0.7516
vn 0.3592 0.6514 -0.6683
vn 0.0884 0.4227 -0.9020
vn -0.2003 0.5784 -0.7908
vn -0.1999 0.5423 -0.8160
vn -0.2629 0.5722 -0.7769
vn -0.0990 0.3257 -0.9403
vn 0.5157 0.0672 -0.8541
vn 0.5085 0.0656 -0.8585
vn 0.5027 0.1029 -0.8583
vn 0.4817 0.0478 -0.8750
vn 0.0699 0.0714 -0.9950
vn -0.6497 0.1322 -0.7486
vn -0.6330 0.1365 -0.7621
vn -0.2803 -0.2471 -0.9276
vn -0.8382 -0.2763 -0.4702
vn -0.5373 -0.2111 -0.8166
vn -0.5449 -0.2192 -0.8093
vn -0.3465 -0.5933 -0.7266
vn 0.4496 -0.2005 -0.8704
vn 0.0526 -0.6949 -0.7172
vn 0.0288 -0.6552 -0.7549
vn 0.0320 0.0554 -0.9980
vn 0.0223 0.0149 -0.9996
vn 0.1444 -0.0734 -0.9868
vn -0.0121 0.1025 -0.9947
vn -0.0705 -0.9975 0.0104
vn 0.0001 -0.9999 0.0107
vn 0.0633 -0.9975 -0.0307
vn 0.0343 -0.9987 -0.0372
vt 0.000000 0.000000
vt 1.000000 0.000000
vt 1.000000 1.000000
vt 0.000000 1.000000
s 0
usemtl Material.001
f 1/1/1 2/2/1 4/3/1 3/4/1
f 2/2/2 1/1/2 5/1/2 6/2/2
f 6/2/3 5/1/3 7/1/3 8/2/3
f 3/4/4 4/3/4 10/3/4 9/4/4
f 9/4/5 10/3/5 12/3/5 11/4/5
f 12/3/6 10/3/6 13/3/6
f 11/4/7 12/3/7 13/3/7 14/4/7
f 11/4/8 14/4/8 9/4/8
f 14/4/9 13/3/9 15/3/9 16/4/9
f 16/4/10 15/3/10 17/3/10 18/4/10
f 17/3/11 15/3/11 19/3/11
f 18/4/12 17/3/12 21/3/12
f 3/4/13 9/4/13 23/4/13 22/4/13
f 23/4/14 9/4/14 16/4/14 25/4/14
f 14/4/15 16/4/15 9/4/15
f 25/4/16 26/4/16 23/4/16
f 1/1/17 3/4/17 22/4/17 28/1/17
f 1/1/18 28/1/18 30/1/18 29/1/18
f 35/1/19 33/1/19 32/1/19 36/1/19
f 5/1/20 31/1/20 7/1/20
f 1/1/21 29/1/21 5/1/21
f 34/1/22 36/1/22 38/1/22
f 35/1/23 34/1/23 40/1/23
f 8/2/24 7/1/24 31/1/24 39/2/24
f 31/1/25 35/1/25 42/1/25 39/1/25
f 42/1/26 35/1/26 40/1/26 43/1/26
f 39/1/27 42/1/27 44/1/27 41/1/27
f 39/1/28 41/1/28 46/1/28 45/1/28
f 45/1/29 46/1/29 48/1/29 47/1/29
f 8/2/30 39/2/30 45/2/30 6/2/30
f 6/2/31 45/2/31 50/2/31 2/2/31
f 2/2/32 50/2/32 51/2/32 49/2/32
f 2/2/33 49/2/33 53/2/33 52/2/33
f 53/2/34 49/2/34 54/2/34 55/2/34
f 13/3/35 10/3/35 55/3/35 56/3/35
f 60/1/36 59/4/36 61/4/36
f 19/3/37 15/3/37 13/3/37 56/3/37
f 28/1/38 22/4/38 58/4/38 57/1/38
f 22/4/39 23/4/39 60/4/39 58/4/39
f 23/4/40 26/4/40 59/4/40 60/4/40
f 61/4/41 59/4/41 26/4/41 25/4/41 62/4/41
f 21/1/42 62/1/42 27/1/42
f 18/4/43 21/1/43 62/1/43
f 18/4/44 62/1/44 25/4/44 16/4/44
f 24/1/45 27/1/45 19/1/45
f 17/3/46 19/3/46 27/1/46
f 27/1/47 21/1/47 17/3/47
f 20/1/48 19/3/48 56/3/48
f 24/1/49 19/1/49 20/1/49
f 56/3/50 55/3/50 63/3/50 64/3/50
f 63/3/51 55/3/51 54/2/51
f 66/1/52 64/3/52 63/3/52
f 20/1/53 56/3/53 64/3/53 24/1/53
f 5/1/54 29/1/54 30/1/54 31/1/54
f 31/1/55 30/1/55 33/1/55 35/1/55
f 34/1/56 35/1/56 36/1/56
f 36/1/57 32/1/57 37/1/57 67/1/57
f 36/1/58 67/1/58 68/1/58 38/1/58
f 69/1/59 37/1/59 32/1/59 33/1/59
f 70/1/60 69/1/60 33/1/60 30/1/60
f 30/1/61 28/1/61 57/1/61 70/1/61
f 49/2/62 51/2/62 54/2/62
f 63/1/63 54/2/63 71/2/63 72/1/63
f 54/2/64 51/2/64 71/2/64
f 48/1/65 71/1/65 45/1/65 47/1/65
f 45/1/66 71/1/66 51/2/66 50/2/66
f 66/1/67 63/3/67 73/3/67 74/1/67
f 65/1/68 73/3/68 63/3/68
f 75/1/69 65/1/69 63/1/69 72/1/69
f 75/1/70 72/1/70 76/1/70
f 77/1/71 48/1/71 46/1/71 41/1/71
f 78/1/72 76/1/72 72/1/72 71/2/72
f 71/2/73 48/1/73 77/1/73 78/1/73
f 66/1/74 79/1/74 24/1/74 64/3/74
f 79/1/75 66/1/75 74/1/75 80/1/75
f 80/1/76 81/1/76 79/1/76
f 27/1/77 24/1/77 79/1/77 82/1/77
f 61/4/78 62/1/78 27/1/78
f 61/4/79 27/1/79 82/1/79 60/1/79
f 81/1/80 82/1/80 79/1/80
f 76/1/81 84/1/81 75/1/81
f 84/1/82 85/1/82 65/1/82 75/1/82
f 86/1/83 73/3/83 65/1/83 85/1/83
f 73/3/84 86/1/84 80/1/84 74/1/84
f 80/1/85 86/1/85 81/1/85
f 83/1/86 57/1/86 60/1/86 82/1/86
f 70/1/87 57/1/87 83/1/87 87/1/87
f 89/1/88 88/1/88 90/1/88
f 67/1/89 37/1/89 69/1/89
f 69/1/90 70/1/90 87/1/90 88/1/90
f 88/1/91 89/1/91 67/1/91 69/1/91
f 91/1/92 68/1/92 67/1/92 89/1/92
f 78/1/93 92/1/93 84/1/93 76/1/93
f 77/1/94 91/1/94 89/1/94 78/1/94
f 90/1/95 92/1/95 78/1/95 89/1/95
f 90/1/96 88/1/96 84/1/96 92/1/96
f 84/1/97 88/1/97 87/1/97 85/1/97
f 83/1/98 86/1/98 85/1/98 87/1/98
f 81/1/99 86/1/99 83/1/99 82/1/99
f 34/1/100 38/1/100 68/1/100 91/1/100
f 43/1/101 34/1/101 91/1/101
f 43/1/102 77/1/102 41/1/102
f 77/1/103 43/1/103 91/1/103
